#!OML:ASF I:\Actors\actors\Patient Classification 1\Patient 1\Session 1\Subject1.ASF
:FULLY-SPECIFIED
:DEGREES
1761
root 0.757873 17.4459 9.88961 9.85151 -1.41514 -9.39237
lowerback 0.262179 1.95298 4.34136
upperback -10.4262 3.10917 1.96992
thorax -11.1842 1.23137 -0.603526
lowerneck -10.8862 -4.88269 -3.0381
upperneck 33.4826 -11.2155 13.2704
head 14.3427 -3.62332 4.19515
rclavicle -1.19271e-015 -3.4191e-014
rhumerus -34.1739 46.7804 -112.776
rradius 100.579
rwrist 30.7238
rhand -8.82205 -33.5937
rfingers 7.12502
rthumb 17.1177 -782.86
lclavicle -1.19271e-015 -3.4191e-014
lhumerus -54.6569 -10.6924 102.396
lradius 117.345
lwrist 77.1965
lhand -23.2436 9.26147
lfingers 7.12502
lthumb 3.20781 39.2171
rfemur -0.676696 24.9453 26.5226
rtibia 1.31263
rfoot -14.4482 -28.1555
rtoes 2.68872
lfemur 10.6378 -47.9698 -15.2508
ltibia -4.89812
lfoot -29.129 54.9665
ltoes 11.4284
1762
root 0.768398 17.4466 9.87828 10.0543 -1.64701 -9.30401
lowerback 0.319758 1.98472 4.48976
upperback -10.5093 3.17862 2.06961
thorax -11.3141 1.25323 -0.587771
lowerneck -11.4301 -4.59568 -2.85274
upperneck 33.9438 -10.2825 11.5792
head 14.4057 -3.36421 3.61177
rclavicle 2.29596e-014 1.98785e-014
rhumerus -34.1355 47.1215 -112.673
rradius 100.474
rwrist 30.9664
rhand -8.66344 -32.9047
rfingers 7.12502
rthumb 17.2704 -782.157
lclavicle 2.29596e-014 1.98785e-014
lhumerus -54.6316 -10.2541 102.451
lradius 117.444
lwrist 77.064
lhand -23.6021 10.6053
lfingers 7.12502
lthumb 2.86161 40.5659
rfemur -1.07408 24.867 26.1949
rtibia 1.39912
rfoot -14.1616 -27.9355
rtoes 2.08485
lfemur 10.3099 -47.8629 -15.1697
ltibia -4.88759
lfoot -29.2138 55.0385
ltoes 11.4654
1763
root 0.783876 17.4395 9.85969 10.5574 -2.14448 -9.25138
lowerback 0.121354 2.14137 4.68481
upperback -10.6454 3.40442 2.16733
thorax -11.3411 1.34901 -0.604983
lowerneck -11.7671 -4.30706 -2.7711
upperneck 34.0237 -9.3128 10.0505
head 14.288 -3.11221 3.11216
rclavicle 2.62396e-014 -2.34566e-014
rhumerus -33.9829 47.5695 -112.435
rradius 100.283
rwrist 31.2841
rhand -8.63594 -32.0907
rfingers 7.12502
rthumb 17.2969 -781.341
lclavicle 2.62396e-014 -2.34566e-014
lhumerus -54.5186 -9.84729 102.549
lradius 117.465
lwrist 76.7508
lhand -26.4585 10.5364
lfingers 7.12502
lthumb 0.102882 40.5161
rfemur -2.09156 24.4628 25.6075
rtibia 1.78466
rfoot -13.7912 -27.0955
rtoes 1.25325
lfemur 9.62429 -47.9316 -14.9168
ltibia -4.75719
lfoot -29.9328 55.3716
ltoes 12.0436
1764
root 0.789909 17.4423 9.85301 10.671 -2.18205 -9.12381
lowerback 0.19113 2.13693 4.90479
upperback -10.7099 3.42301 2.18881
thorax -11.4504 1.33478 -0.708295
lowerneck -12.0321 -4.0283 -2.5328
upperneck 34.0618 -8.36221 8.42291
head 14.1512 -2.86959 2.54704
rclavicle -1.69464e-014 3.18055e-014
rhumerus -34.0884 48.4005 -112.587
rradius 100.294
rwrist 30.9501
rhand -8.97757 -33.0481
rfingers 7.12502
rthumb 16.968 -782.327
lclavicle -1.69464e-014 3.18055e-014
lhumerus -54.4908 -9.57261 102.546
lradius 117.451
lwrist 76.375
lhand -26.6989 10.082
lfingers 7.12502
lthumb -0.129233 40.0617
rfemur -2.25049 24.627 25.3761
rtibia 1.7973
rfoot -13.8506 -27.2052
rtoes 1.42853
lfemur 9.3484 -47.9246 -14.9021
ltibia -4.681
lfoot -29.9149 55.3448
ltoes 12.0519
1765
root 0.796151 17.4442 9.84677 10.7656 -2.1824 -8.96883
lowerback 0.309988 2.11343 5.12952
upperback -10.7778 3.42262 2.22867
thorax -11.5962 1.31058 -0.794538
lowerneck -12.2861 -3.71628 -2.15428
upperneck 34.0565 -7.3193 6.56865
head 13.9977 -2.60389 1.88567
rclavicle 1.16289e-014 -1.55052e-014
rhumerus -34.1905 48.3106 -112.665
rradius 100.209
rwrist 31.1083
rhand -9.20521 -32.5463
rfingers 7.12502
rthumb 16.7489 -781.844
lclavicle 1.16289e-014 -1.55052e-014
lhumerus -54.5291 -9.29297 102.584
lradius 117.497
lwrist 76.1596
lhand -26.6418 9.67536
lfingers 7.12502
lthumb -0.0741302 39.6551
rfemur -2.35834 24.7607 25.1252
rtibia 1.74998
rfoot -13.8837 -27.3572
rtoes 1.5443
lfemur 9.10733 -47.9706 -14.9525
ltibia -4.58869
lfoot -30.1924 55.27
ltoes 12.5323
1766
root 0.801226 17.4443 9.84261 10.8683 -2.16308 -8.79973
lowerback 0.377275 2.0326 5.31087
upperback -10.8346 3.34407 2.33855
thorax -11.7085 1.25755 -0.771286
lowerneck -12.5915 -3.32984 -1.59697
upperneck 34.1364 -6.11716 4.39985
head 13.9027 -2.28924 1.09874
rclavicle -5.86415e-015 -2.54444e-014
rhumerus -34.5705 48.8797 -113.027
rradius 100.159
rwrist 32.1494
rhand -9.4167 -33.4492
rfingers 7.12502
rthumb 16.5453 -782.764
lclavicle -5.86415e-015 -2.54444e-014
lhumerus -54.5656 -8.84498 102.62
lradius 117.627
lwrist 76.2196
lhand -26.4205 9.91494
lfingers 7.12502
lthumb 0.139601 39.8946
rfemur -2.4649 24.9821 24.8701
rtibia 1.71503
rfoot -13.9796 -27.585
rtoes 1.90226
lfemur 8.9663 -48.1456 -15.0733
ltibia -4.59429
lfoot -30.2976 55.4028
ltoes 12.6514
1767
root 0.806771 17.4424 9.83921 11.0179 -2.14709 -8.64142
lowerback 0.301315 1.94963 5.48853
upperback -10.8851 3.25241 2.47118
thorax -11.7285 1.20262 -0.714316
lowerneck -12.8145 -2.93632 -1.06669
upperneck 34.2447 -4.91131 2.25375
head 13.8523 -1.97937 0.331593
rclavicle -7.31776e-015 -1.56046e-014
rhumerus -34.6893 49.3571 -113.178
rradius 100.07
rwrist 32.4728
rhand -9.42744 -33.7545
rfingers 7.12502
rthumb 16.5349 -783.07
lclavicle -7.31776e-015 -1.56046e-014
lhumerus -54.5438 -8.37491 102.669
lradius 117.753
lwrist 76.3377
lhand -26.267 10.2572
lfingers 7.12502
lthumb 0.287897 40.2368
rfemur -2.62976 25.2553 24.6057
rtibia 1.69303
rfoot -14.0901 -27.8338
rtoes 2.22931
lfemur 8.83321 -48.4453 -15.1874
ltibia -4.65642
lfoot -30.3251 55.7307
ltoes 12.5384
1768
root 0.81364 17.4394 9.83568 11.1392 -2.12107 -8.49691
lowerback 0.187638 1.91285 5.71971
upperback -10.9064 3.21793 2.56495
thorax -11.684 1.17002 -0.732953
lowerneck -12.9703 -2.56988 -0.546881
upperneck 34.3407 -3.79295 0.247746
head 13.8331 -1.69375 -0.390142
rclavicle -5.96354e-015 6.85807e-015
rhumerus -34.5976 49.601 -113.115
rradius 99.9661
rwrist 32.5494
rhand -9.36838 -33.8169
rfingers 7.12502
rthumb 16.5918 -783.128
lclavicle -5.96354e-015 6.85807e-015
lhumerus -54.5283 -8.1164 102.774
lradius 117.767
lwrist 76.2293
lhand -26.3154 10.0858
lfingers 7.12502
lthumb 0.241159 40.0654
rfemur -2.74912 25.428 24.3567
rtibia 1.62866
rfoot -14.1784 -28.0096
rtoes 2.52112
lfemur 8.68009 -48.6266 -15.2689
ltibia -4.68356
lfoot -30.4213 55.8747
ltoes 12.7075
1769
root 0.818263 17.4368 9.83362 11.1543 -2.08925 -8.33154
lowerback 0.147598 1.86002 5.89016
upperback -10.8769 3.16212 2.67581
thorax -11.6297 1.13473 -0.700254
lowerneck -13.1513 -2.19075 -0.0725278
upperneck 34.4612 -2.70987 -1.57014
head 13.8755 -1.40538 -1.03793
rclavicle 3.03892e-014 -6.06293e-014
rhumerus -34.5349 49.8574 -113.023
rradius 99.9098
rwrist 32.5807
rhand -9.22415 -33.8295
rfingers 7.12502
rthumb 16.7307 -783.129
lclavicle 3.03892e-014 -6.06293e-014
lhumerus -54.5077 -7.89703 102.883
lradius 117.688
lwrist 75.997
lhand -26.4362 9.7876
lfingers 7.12502
lthumb 0.124418 39.7673
rfemur -2.7237 25.5266 24.1444
rtibia 1.55197
rfoot -14.3179 -28.1361
rtoes 2.84324
lfemur 8.65327 -48.6937 -15.4502
ltibia -4.69553
lfoot -30.5013 55.8426
ltoes 12.9435
1770
root 0.820094 17.4345 9.83277 11.1378 -2.04591 -8.16061
lowerback 0.117428 1.76412 5.9671
upperback -10.8406 3.04634 2.8323
thorax -11.5829 1.082 -0.561546
lowerneck -13.2894 -1.79665 0.310211
upperneck 34.5637 -1.6608 -3.15155
head 13.9398 -1.11352 -1.5836
rclavicle -2.21645e-014 -4.90004e-014
rhumerus -34.5529 50.1608 -112.955
rradius 99.9359
rwrist 32.3812
rhand -9.02285 -33.722
rfingers 7.12502
rthumb 16.9244 -783.005
lclavicle -2.21645e-014 -4.90004e-014
lhumerus -54.4794 -7.56598 102.977
lradius 117.649
lwrist 75.7964
lhand -26.4996 9.89969
lfingers 7.12502
lthumb 0.0632376 39.8794
rfemur -2.66108 25.6376 23.964
rtibia 1.50266
rfoot -14.4695 -28.308
rtoes 2.93092
lfemur 8.61131 -48.6433 -15.6027
ltibia -4.70439
lfoot -30.2464 55.7199
ltoes 12.8439
1771
root 0.821479 17.4321 9.83173 11.1215 -1.94754 -8.02607
lowerback 0.0869437 1.66306 6.10096
upperback -10.8261 2.92376 2.9379
thorax -11.5566 1.01653 -0.508595
lowerneck -13.3485 -1.43056 0.934333
upperneck 34.6601 -0.716061 -4.75226
head 14.0067 -0.838447 -2.19952
rclavicle -5.31749e-015 -2.66371e-014
rhumerus -34.5921 50.341 -112.947
rradius 99.9589
rwrist 32.1805
rhand -8.93786 -33.6328
rfingers 7.12502
rthumb 17.0063 -782.908
lclavicle -5.31749e-015 -2.66371e-014
lhumerus -54.4904 -7.32841 103.034
lradius 117.66
lwrist 75.6649
lhand -26.4751 10.0928
lfingers 7.12502
lthumb 0.0868796 40.0725
rfemur -2.6174 25.6979 23.8328
rtibia 1.48806
rfoot -14.6121 -28.4482
rtoes 3.14484
lfemur 8.43967 -48.3784 -15.5862
ltibia -4.70704
lfoot -29.4889 55.4463
ltoes 12.2635
1772
root 0.811656 17.44 9.84279 10.6747 -1.44216 -7.86205
lowerback 0.228584 1.43387 6.15046
upperback -10.6736 2.62433 2.98188
thorax -11.4816 0.872325 -0.464608
lowerneck -13.2823 -1.16224 1.73053
upperneck 34.645 -0.0213699 -6.21444
head 14.008 -0.62865 -2.82771
rclavicle -9.93923e-016 -9.74045e-015
rhumerus -34.6013 50.3234 -112.999
rradius 99.9421
rwrist 32.1248
rhand -8.92446 -33.7339
rfingers 7.12502
rthumb 17.0191 -783.008
lclavicle -9.93923e-016 -9.74045e-015
lhumerus -54.5187 -7.32311 103.031
lradius 117.666
lwrist 75.6602
lhand -26.4208 10.0021
lfingers 7.12502
lthumb 0.139358 39.9818
rfemur -1.67175 26.3712 24.1636
rtibia 1.15488
rfoot -15.0983 -29.5158
rtoes 4.19164
lfemur 8.7763 -47.8254 -15.7951
ltibia -4.83911
lfoot -27.7433 54.7671
ltoes 10.8636
